<?xml version="1.0" encoding="utf-8"?>
<!-- Generator: Adobe Illustrator 18.1.0, SVG Export Plug-In . SVG Version: 6.00 Build 0)  -->
<svg version="1.1" id="Layer_1" xmlns="http://www.w3.org/2000/svg" xmlns:xlink="http://www.w3.org/1999/xlink" x="0px" y="0px"
	 viewBox="0 0 169.5 77.5" enable-background="new 0 0 169.5 77.5" xml:space="preserve">
<g>
	<path fill="#BE1E2D" d="M169.5,77.5H0L84.8,0L169.5,77.5z M3.6,76.1h162.3L84.8,1.9L3.6,76.1z"/>
	<g>
		<path fill="#BE1E2D" d="M75.6,39.1h2.5v0.5c0,1.8-0.3,3-1,3.5c-0.7,0.5-2.1,0.8-4.4,0.8c-2.6,0-4.2-0.4-4.8-1.3
			c-0.6-0.8-0.9-3.1-0.9-6.8c0-2.2,0.4-3.6,1.2-4.3c0.8-0.7,2.5-1,5.1-1c1.9,0,3.1,0.3,3.7,0.8c0.6,0.6,0.9,1.7,0.9,3.3l0,0.3h-2.5
			v-0.3c0-0.9-0.2-1.4-0.5-1.6c-0.3-0.2-1.1-0.4-2.2-0.4c-1.5,0-2.5,0.2-2.8,0.6c-0.3,0.4-0.5,1.5-0.5,3.4c0,2.5,0.1,4,0.4,4.5
			c0.3,0.5,1.2,0.7,2.7,0.7c1.2,0,2-0.1,2.4-0.4c0.4-0.3,0.6-0.8,0.6-1.7L75.6,39.1z"/>
		<path fill="#BE1E2D" d="M85.1,30.6c2.4,0,3.9,0.4,4.6,1.2c0.7,0.8,1,2.6,1,5.3c0,3-0.3,4.9-1,5.7c-0.7,0.8-2.4,1.2-5,1.2
			c-2.4,0-3.9-0.4-4.6-1.2c-0.7-0.8-1-2.5-1-5.1c0-3.1,0.3-5.1,1-5.9C80.8,31,82.4,30.6,85.1,30.6z M84.9,32.7
			c-1.7,0-2.6,0.2-2.9,0.6c-0.3,0.4-0.4,1.9-0.4,4.5c0,1.9,0.2,3,0.5,3.4c0.3,0.4,1.3,0.6,2.9,0.6c1.5,0,2.5-0.2,2.8-0.6
			c0.3-0.4,0.5-1.7,0.5-3.9c0-2.2-0.1-3.5-0.4-3.9C87.5,32.9,86.5,32.7,84.9,32.7z"/>
		<path fill="#BE1E2D" d="M92.4,43.8V30.7h6.4c1.8,0,3.1,0.4,3.8,1.2c0.7,0.8,1.1,2.2,1.1,4.2c0,3.3-0.3,5.4-0.9,6.3
			c-0.6,0.9-1.9,1.4-4,1.4H92.4z M94.9,41.7h3.5c1.2,0,2-0.3,2.3-0.8c0.3-0.5,0.5-1.8,0.5-3.6c0-1.9-0.2-3.2-0.5-3.7
			c-0.3-0.5-1-0.8-2.2-0.8h-3.7V41.7z"/>
	</g>
	<path fill="#BE1E2D" d="M85.4,10.3l-65.6,60H151L85.4,10.3z M125.8,49.2H45l40.4-36.9L125.8,49.2z M43.8,50.3v0.3h83.5v-0.1
		l20.1,18.4H23.4L43.8,50.3z"/>
</g>
</svg>
