<?xml version="1.0" encoding="utf-8"?>
<!-- Generator: Adobe Illustrator 18.1.0, SVG Export Plug-In . SVG Version: 6.00 Build 0)  -->
<svg version="1.1" id="Layer_1" xmlns="http://www.w3.org/2000/svg" xmlns:xlink="http://www.w3.org/1999/xlink" x="0px" y="0px"
	 viewBox="0 0 173.3 87.8" enable-background="new 0 0 173.3 87.8" xml:space="preserve">
<g>
	<path fill="#BE1E2D" d="M66.9,54.2c0.7,1,2.5,1.4,5.4,1.4c2.6,0,4.2-0.3,5-0.9c0.8-0.6,1.1-1.9,1.1-4v-0.5h-2.8l0,0.7
		c0,1-0.2,1.6-0.6,1.9c-0.4,0.3-1.3,0.4-2.7,0.4c-1.7,0-2.7-0.3-3.1-0.8c-0.3-0.5-0.5-2.2-0.5-5c0-2.1,0.2-3.4,0.5-3.8
		c0.3-0.4,1.4-0.6,3.1-0.6c1.3,0,2.1,0.1,2.5,0.4c0.4,0.3,0.5,0.9,0.5,1.9v0.4h2.8l0-0.3c0-1.9-0.4-3.1-1.1-3.8
		c-0.7-0.6-2.1-0.9-4.2-0.9c-2.9,0-4.8,0.4-5.7,1.2s-1.4,2.4-1.4,4.8C65.9,50.7,66.2,53.3,66.9,54.2z"/>
	<path fill="#BE1E2D" d="M85.9,55.7c3,0,4.9-0.4,5.6-1.3c0.8-0.9,1.2-3,1.2-6.4c0-3.1-0.4-5.1-1.2-6c-0.8-0.9-2.5-1.3-5.2-1.3
		c-3,0-4.9,0.5-5.7,1.4c-0.8,0.9-1.2,3.1-1.2,6.6c0,3,0.4,4.9,1.2,5.7C81.4,55.2,83.2,55.7,85.9,55.7z M82.8,43.7
		c0.3-0.5,1.4-0.7,3.3-0.7c1.8,0,2.9,0.2,3.2,0.7c0.3,0.5,0.5,1.9,0.5,4.4c0,2.5-0.2,3.9-0.5,4.4s-1.4,0.7-3.1,0.7
		c-1.8,0-2.9-0.2-3.3-0.7c-0.4-0.4-0.6-1.7-0.6-3.8C82.3,45.9,82.5,44.2,82.8,43.7z"/>
	<path fill="#BE1E2D" d="M106.4,54c0.7-1.1,1-3.4,1-7.1c0-2.3-0.4-3.8-1.2-4.7c-0.8-0.9-2.3-1.4-4.3-1.4h-7.3v14.8h7.4
		C104.3,55.5,105.8,55,106.4,54z M97.4,53.2V43.1h4.2c1.3,0,2.1,0.3,2.5,0.9c0.4,0.6,0.5,2,0.5,4.2c0,2.1-0.2,3.5-0.6,4.1
		c-0.4,0.6-1.3,0.9-2.6,0.9H97.4z"/>
	<path fill="#BE1E2D" d="M86.7,0L0,87.8h173.3L86.7,0z M86.7,2.8l81.9,82.9H4.8L86.7,2.8z"/>
	<path fill="#BE1E2D" d="M136.7,62.1v-0.5h-0.4L86.7,11.4L17.9,81h137.5L136.7,62.1z M133.5,61.6H39.9l46.8-47.4L133.5,61.6z
		 M37.9,63.6h97.6L150.7,79h-128L37.9,63.6z"/>
</g>
</svg>
